<svg xmlns="http://www.w3.org/2000/svg" width="26.57" height="26.565" viewBox="0 0 26.57 26.565">
  <path id="Icon_awesome-instagram" data-name="Icon awesome-instagram" d="M13.283,8.709a6.811,6.811,0,1,0,6.811,6.811A6.8,6.8,0,0,0,13.283,8.709Zm0,11.239a4.428,4.428,0,1,1,4.428-4.428,4.436,4.436,0,0,1-4.428,4.428ZM21.961,8.431a1.589,1.589,0,1,1-1.589-1.589A1.585,1.585,0,0,1,21.961,8.431Zm4.511,1.612a7.862,7.862,0,0,0-2.146-5.566A7.913,7.913,0,0,0,18.76,2.331c-2.193-.124-8.767-.124-10.96,0a7.9,7.9,0,0,0-5.566,2.14A7.887,7.887,0,0,0,.088,10.037C-.036,12.23-.036,18.8.088,21a7.862,7.862,0,0,0,2.146,5.566A7.923,7.923,0,0,0,7.8,28.709c2.193.124,8.767.124,10.96,0a7.861,7.861,0,0,0,5.566-2.146A7.913,7.913,0,0,0,26.472,21c.124-2.193.124-8.761,0-10.954ZM23.638,23.35a4.483,4.483,0,0,1-2.525,2.525c-1.749.694-5.9.533-7.83.533s-6.088.154-7.83-.533A4.483,4.483,0,0,1,2.927,23.35c-.694-1.749-.533-5.9-.533-7.83s-.154-6.088.533-7.83A4.483,4.483,0,0,1,5.453,5.164c1.749-.694,5.9-.533,7.83-.533s6.088-.154,7.83.533A4.483,4.483,0,0,1,23.638,7.69c.694,1.749.533,5.9.533,7.83S24.332,21.608,23.638,23.35Z" transform="translate(0.005 -2.238)" fill="currentFill"/>
</svg>
