<svg xmlns="http://www.w3.org/2000/svg" width="31.182" height="31.181" viewBox="0 0 31.182 31.181">
  <path id="Icon_awesome-linkedin-in" data-name="Icon awesome-linkedin-in" d="M6.98,31.182H.515V10.364H6.98ZM3.744,7.524A3.762,3.762,0,1,1,7.488,3.745,3.776,3.776,0,0,1,3.744,7.524ZM31.175,31.182H24.724V21.048c0-2.415-.049-5.513-3.361-5.513-3.361,0-3.876,2.624-3.876,5.339V31.182H11.029V10.364h6.2V13.2h.09a6.793,6.793,0,0,1,6.117-3.362c6.543,0,7.745,4.308,7.745,9.9V31.182Z" transform="translate(0 -0.001)" fill="currentFill"/>
</svg>
