<svg xmlns="http://www.w3.org/2000/svg" width="30.349" height="24.649" viewBox="0 0 30.349 24.649">
  <path id="Icon_awesome-twitter" data-name="Icon awesome-twitter" d="M27.229,9.524c.019.27.019.539.019.809,0,8.223-6.259,17.7-17.7,17.7A17.577,17.577,0,0,1,0,25.238a12.868,12.868,0,0,0,1.5.077,12.457,12.457,0,0,0,7.722-2.657,6.231,6.231,0,0,1-5.816-4.314,7.844,7.844,0,0,0,1.175.1,6.579,6.579,0,0,0,1.637-.212,6.221,6.221,0,0,1-4.988-6.1v-.077a6.264,6.264,0,0,0,2.812.789A6.229,6.229,0,0,1,2.118,4.517a17.68,17.68,0,0,0,12.825,6.509A7.022,7.022,0,0,1,14.789,9.6,6.226,6.226,0,0,1,25.554,5.345a12.246,12.246,0,0,0,3.948-1.5,6.2,6.2,0,0,1-2.735,3.428,12.469,12.469,0,0,0,3.582-.963,13.371,13.371,0,0,1-3.12,3.216Z" transform="translate(0 -3.381)" fill="currentFill"/>
</svg>
